<?xml version="1.0" encoding="utf-8"?>
<!-- Generator: Adobe Illustrator 26.0.2, SVG Export Plug-In . SVG Version: 6.00 Build 0)  -->
<svg version="1.1" id="Layer_1" xmlns="http://www.w3.org/2000/svg" xmlns:xlink="http://www.w3.org/1999/xlink" x="0px" y="0px"
	 viewBox="0 0 1920 1080" style="enable-background:new 0 0 1920 1080;" xml:space="preserve">
<style type="text/css">
	.st0{fill:#FFFFFF;}
</style>
<g>
	<path class="st0" d="M748.33,424.75c56.74-29.6,153.11-39.18,185.62-39.23c310.22-0.44,344.74,187.43,344.74,187.43
		s-90.82-141.06-345.04-144.03c-155.25-1.81-209.96,55.5-224.97,69.04c-68.06,61.33-74.25,119.9-75.43,121.06
		c96.55-94.69,280.09-104.74,297.66-104.32c255.78,6.08,304.69,196.09,304.69,196.09c-79.13-97.56-213.74-148.2-303.51-148.91
		c-224-1.78-271.03,99.65-298.37,99.65c-20.16,0.27-40.72,0.05-60.89,0c-5.06-0.01-5.61-2.04-4.14-6.73
		c13.09-41.79,26.23-83.57,39.32-125.37c9.85-31.46,19.64-62.94,29.47-94.4c6.36-20.34,12.79-40.65,19.06-61.01
		c1.18-3.85,3.43-4.59,7.76-4.6c20.42-0.05,39.78-0.05,60.09,0c4.62,0.01,6.68,0.94,7.89,5.01c4.36,14.68,9.03,29.27,13.63,43.88
		C746.57,420.34,747.41,422.31,748.33,424.75z M692.7,420.99c-5.22,19.28-10.43,38.56-15.65,57.84c0,0,0.1,0.12,17.4-15.49
		c9.65-8.7,9.65-8.7,9.65-8.7s0,0-5.57-16.61C692.81,420.96,692.7,420.99,692.7,420.99z"/>
	<path class="st0" d="M237.86,537.25c2.22,3.66,4.3,7.21,6.5,10.67c14.04,22.06,28.1,44.12,42.18,66.15
		c8.7,13.61,17.48,27.17,26.11,40.82c0.89,1.41,1.84,3.75,1.25,4.84c-0.6,1.1-3.07,1.63-4.73,1.64c-18.83,0.11-37.67,0.01-56.5,0.12
		c-3.78,0.02-6.06-1.42-7.99-4.7c-21.06-35.73-42.28-71.37-63.39-107.07c-2.07-3.51-4.75-5.36-8.92-5.13c-3.16,0.18-6.33,0-9.5,0.04
		c-6.9,0.08-8.2,1.34-8.21,8.19c-0.02,32,0.03,64-0.03,96c-0.03,14.25,1.68,12.53-12.43,12.6c-13.5,0.07-27-0.11-40.5,0.08
		c-4.49,0.07-6.17-1.42-6.16-6.04c0.09-93.33,0.09-186.66,0-279.99c0-4.5,1.45-6.17,6.05-6.15c30.67,0.14,61.35-0.55,91.99,0.29
		c21.66,0.59,43.14,3.65,63.01,13.5c25.68,12.74,39.13,33.12,41.15,61.94c0.73,10.44,0.49,20.58-1.18,30.72
		c-2.49,15.14-10.1,27.6-21.34,37.98c-10.29,9.51-21.86,16.85-35,21.73C239.54,535.78,238.96,536.44,237.86,537.25z M154.68,458.48
		c0,12.99,0.14,25.98-0.08,38.97c-0.08,4.62,1.65,6.21,6.16,6.02c11.96-0.51,23.98-0.2,35.88-1.27c11.11-1,21.95-4.5,29.4-13.25
		c12.49-14.66,13.15-32.03,7.83-49.53c-5.01-16.49-18.66-22.99-34.34-24.71c-12.85-1.41-25.91-0.79-38.87-1.3
		c-4.6-0.18-6.13,1.59-6.06,6.11C154.81,432.5,154.68,445.49,154.68,458.48z"/>
	<path class="st0" d="M359.63,515.94c0-45.99,0-91.98,0-137.97c0-8.37,0.17-8.55,8.24-8.55c55.66-0.01,111.31-0.01,166.97,0
		c7.35,0,7.63,0.06,6.79,7.48c-1.19,10.57-2.92,21.09-4.23,31.65c-0.56,4.48-2.62,6.02-7.21,6c-34.16-0.17-68.32-0.09-102.48-0.09
		c-8.03,0-8.04,0.01-8.04,8c-0.01,20.83-0.02,41.66,0.01,62.49c0.01,6.13,0.33,6.45,6.58,6.45c29.16,0.02,58.32,0.01,87.48,0.01
		c7.92,0,7.92,0.01,7.93,8.13c0.01,9.66,0.02,19.33-0.01,28.99c-0.02,6.7-0.22,6.9-7.14,6.91c-29.16,0.01-58.32,0-87.48,0.01
		c-7.25,0-7.36,0.11-7.36,7.18c-0.01,22.33-0.02,44.66,0,66.99c0.01,6.5,0.28,6.78,6.76,6.78c36.49,0.02,72.99,0,109.48,0.01
		c7.34,0,7.74,0.39,7.75,7.53c0.02,10.66-0.11,21.33,0.06,31.99c0.06,4.12-1.54,5.56-5.61,5.55c-57.66-0.08-115.31-0.09-172.97,0.02
		c-5.09,0.01-5.57-2.6-5.56-6.61C359.66,608.59,359.64,562.26,359.63,515.94z"/>
	<path class="st0" d="M1700.8,498.61c5.41-11.02,10.16-20.53,14.76-30.11c9.93-20.72,19.75-41.48,29.66-62.21
		c5.1-10.66,10.42-21.22,15.38-31.95c1.72-3.73,4.12-5.03,8.15-4.99c16.66,0.17,33.32,0.04,49.98,0.09
		c6.13,0.02,6.96,1.44,4.17,6.72c-15.51,29.28-30.95,58.59-46.53,87.84c-14.63,27.47-29.48,54.83-43.99,82.37
		c-1.7,3.22-2.57,7.26-2.59,10.93c-0.2,32.32-0.11,64.64-0.12,96.97c0,7.07-0.14,7.19-7.35,7.2c-15.16,0.01-30.32,0.02-45.48-0.01
		c-6.65-0.01-7.18-0.52-7.18-7.09c-0.02-32.16,0.1-64.31-0.15-96.47c-0.03-4.11-1.25-8.58-3.15-12.24
		c-14.03-27.04-28.32-53.94-42.62-80.84c-15.08-28.36-30.21-56.69-45.4-85c-5.26-9.8-4.97-10.4,6.23-10.4
		c16.33,0,32.66,0.1,48.98-0.07c4.01-0.04,6.4,1.23,8.16,4.97c17.36,36.91,34.86,73.75,52.35,110.6
		C1696.02,489.07,1698.12,493.17,1700.8,498.61z"/>
	<path class="st0" d="M1418.6,660.78c0.35-4.16,0.82-7.23,0.82-10.31c0.04-74.5,0.03-149,0.03-223.5c0-9.71-0.8-10.51-10.57-10.51
		c-22.83-0.01-45.67,0.01-68.5-0.01c-6.45-0.01-6.73-0.3-6.74-6.81c-0.02-11.5,0.12-23-0.07-34.5c-0.07-4.39,1.64-5.79,5.9-5.78
		c73.17,0.08,146.33,0.05,219.5,0.08c5.29,0,6.06,1.11,5.37,6.3c-1.61,12.03-3.28,24.06-4.63,36.13c-0.47,4.24-2.98,4.6-6.23,4.59
		c-20.5-0.02-41-0.01-61.5,0c-3,0-6,0.1-9,0c-3.87-0.13-5.47,1.75-5.3,5.48c0.08,1.66,0,3.33,0,5c0,75.5,0,151,0,226.5
		c0,8.01-0.01,8.01-8.04,8.02c-15,0.01-30,0.03-45-0.03C1422.56,661.42,1420.49,660.99,1418.6,660.78z"/>
	<path class="st0" d="M1162.34,370.08c1.71-0.22,3.42-0.64,5.14-0.64c37.99-0.04,75.98,0.04,113.97-0.11
		c5.17-0.02,6.62,1.94,6.26,7.44c-0.66,10.05-0.9,20.14-0.13,30.18c0.41,5.35-0.61,7.69-5.74,7.59
		c-13.66-0.27-27.33,0.04-40.99-0.22c-2.8-0.05-6.04-0.98-8.27-2.61c-20.68-15.08-42.75-27.66-66.31-37.64
		c-1.52-0.64-2.82-1.8-4.22-2.72C1162.19,370.73,1162.19,370.72,1162.34,370.08z"/>
</g>
</svg>
